<svg width="346" height="75" fill="none" xmlns="http://www.w3.org/2000/svg"><path d="M112.274 66.134h21.906v-4.041h-17.444V51.405h16.542V47.32h-16.542V36.722h17.444v-4.041h-21.906v33.453ZM159.872 41.93h-5.364L143.329 53.3V32.143h-4.237v33.992h4.237V58.88l4.157-4.352 8.058 11.605h4.959l-9.962-14.459 9.331-9.744ZM181.732 43.03c-1.893-1.092-4.027-1.638-6.4-1.638-2.344 0-4.462.554-6.355 1.661a12.447 12.447 0 0 0-4.508 4.49c-1.112 1.887-1.667 4.042-1.667 6.467s.563 4.595 1.69 6.51c1.127 1.917 2.637 3.421 4.53 4.513 1.893 1.094 3.996 1.64 6.31 1.64 2.314 0 4.41-.546 6.288-1.64 1.878-1.092 3.387-2.589 4.53-4.49 1.141-1.9 1.713-4.078 1.713-6.533 0-2.454-.549-4.625-1.646-6.511a12.095 12.095 0 0 0-4.485-4.468Zm.609 15.38c-.706 1.318-1.668 2.35-2.885 3.099-1.217.748-2.591 1.122-4.124 1.122-1.503 0-2.862-.374-4.079-1.122-1.217-.748-2.186-1.781-2.907-3.099-.722-1.317-1.082-2.784-1.082-4.4 0-1.617.36-3.069 1.082-4.356.721-1.287 1.69-2.305 2.907-3.053 1.217-.748 2.576-1.123 4.079-1.123 1.533 0 2.907.375 4.124 1.123a8.076 8.076 0 0 1 2.885 3.053c.706 1.287 1.059 2.74 1.059 4.356 0 1.616-.353 3.083-1.059 4.4ZM224.035 42.56c-1.368-.779-2.893-1.168-4.575-1.168-1.834 0-3.501.487-5.004 1.46-1.11.718-1.98 1.688-2.614 2.905-.603-1.103-1.449-2.035-2.546-2.793-1.518-1.048-3.223-1.572-5.116-1.572-1.653 0-3.141.404-4.463 1.212a6.704 6.704 0 0 0-2.298 2.342v-3.015h-4.147v24.203h4.237V51.809c0-1.317.248-2.447.743-3.39.496-.943 1.172-1.668 2.029-2.178.856-.508 1.825-.763 2.907-.763 1.111 0 2.081.255 2.907.763.826.51 1.48 1.228 1.961 2.156.48.928.721 2.065.721 3.413v14.324h4.237V51.809c0-1.317.248-2.447.744-3.39.496-.943 1.172-1.668 2.028-2.178.857-.508 1.826-.763 2.907-.763 1.082 0 2.044.255 2.885.763.841.51 1.502 1.228 1.983 2.156.481.928.722 2.065.722 3.413v14.324h4.236V50.462c0-1.736-.405-3.292-1.217-4.67a8.783 8.783 0 0 0-3.267-3.233ZM252.362 43.03c-1.893-1.092-4.027-1.638-6.4-1.638-2.344 0-4.463.554-6.356 1.661a12.436 12.436 0 0 0-4.507 4.49c-1.112 1.887-1.668 4.042-1.668 6.467s.564 4.595 1.691 6.51c1.126 1.917 2.636 3.421 4.529 4.513 1.893 1.094 3.996 1.64 6.311 1.64 2.313 0 4.409-.546 6.288-1.64 1.877-1.092 3.387-2.589 4.529-4.49 1.142-1.9 1.713-4.078 1.713-6.533 0-2.454-.548-4.625-1.645-6.511a12.102 12.102 0 0 0-4.485-4.468Zm.609 15.38c-.707 1.318-1.668 2.35-2.885 3.099-1.217.748-2.592 1.122-4.124 1.122-1.503 0-2.862-.374-4.079-1.122-1.217-.748-2.187-1.781-2.908-3.099-.721-1.317-1.082-2.784-1.082-4.4 0-1.617.361-3.069 1.082-4.356.721-1.287 1.691-2.305 2.908-3.053 1.217-.748 2.576-1.123 4.079-1.123 1.532 0 2.907.375 4.124 1.123a8.084 8.084 0 0 1 2.885 3.053c.705 1.287 1.059 2.74 1.059 4.356 0 1.616-.354 3.083-1.059 4.4ZM282.72 43.053c-1.819-1.107-3.87-1.661-6.153-1.661-2.013 0-3.802.426-5.364 1.28a9.974 9.974 0 0 0-3.065 2.55v-13.08h-4.237v33.992h4.147V62.63a8.806 8.806 0 0 0 3.133 2.763c1.607.853 3.387 1.28 5.341 1.28 2.314 0 4.379-.554 6.198-1.662 1.817-1.107 3.252-2.62 4.304-4.535 1.052-1.916 1.578-4.056 1.578-6.421 0-2.425-.526-4.588-1.578-6.489-1.052-1.9-2.487-3.405-4.304-4.513Zm.383 15.38c-.692 1.302-1.631 2.328-2.817 3.076-1.188.748-2.547 1.122-4.079 1.122-1.533 0-2.908-.374-4.125-1.122-1.217-.748-2.179-1.774-2.884-3.076-.707-1.303-1.06-2.762-1.06-4.378 0-1.646.353-3.114 1.06-4.4a8.066 8.066 0 0 1 2.884-3.054c1.217-.748 2.592-1.123 4.125-1.123 1.532 0 2.891.375 4.079 1.123 1.186.748 2.125 1.766 2.817 3.053.691 1.287 1.036 2.755 1.036 4.4 0 1.617-.345 3.076-1.036 4.379ZM298.293 32.68h-4.237v5.39h4.237v-5.39ZM298.293 41.93h-4.237v24.204h4.237V41.93ZM308.974 32.142h-4.237v33.992h4.237V32.142ZM331.173 42.56c-1.367-.779-2.923-1.168-4.665-1.168-1.803 0-3.373.426-4.71 1.28a7.16 7.16 0 0 0-2.231 2.24V41.93h-4.147v24.203h4.237V51.809c0-1.317.255-2.447.766-3.39.511-.943 1.209-1.668 2.096-2.178.886-.508 1.9-.763 3.043-.763 1.141 0 2.155.255 3.042.763a5.182 5.182 0 0 1 2.051 2.156c.48.928.721 2.065.721 3.413v14.324h4.237V50.462c0-1.736-.399-3.292-1.194-4.67a8.627 8.627 0 0 0-3.246-3.233ZM345.798 41.93h-4.236v24.203h4.236V41.931ZM345.799 32.68h-4.237v5.388h4.237V32.68Z" fill="#000"/><path d="M78.654 44.793c-6.75 0-12.223 5.452-12.223 12.177s5.472 12.177 12.223 12.177c6.75 0 12.223-5.452 12.223-12.177s-5.473-12.177-12.223-12.177Z" fill="#0072B3"/><path d="m69.877 8.92-39.59 39.44a12.144 12.144 0 0 0 0 17.22c4.774 4.755 12.513 4.755 17.286 0l39.59-39.44a12.144 12.144 0 0 0 0-17.22c-4.773-4.756-12.513-4.756-17.286 0Z" fill="#ADEC97"/><path d="M8.908 27.062a12.144 12.144 0 0 0 0 17.22l21.38 21.299c4.773 4.755 12.512 4.755 17.285 0a12.144 12.144 0 0 0 0-17.22l-21.38-21.3c-4.772-4.755-12.512-4.755-17.285 0Z" fill="#2ECA3E"/></svg>