<svg width="154" height="154" fill="none" xmlns="http://www.w3.org/2000/svg"><path d="M5.31 47.793H0v5.31h5.31v-5.31ZM5.31 58.414H0v5.31h5.31v-5.31ZM5.31 74.345H0v5.31h5.31v-5.31ZM5.31 84.966H0v5.31h5.31v-5.31ZM5.31 90.276H0v5.31h5.31v-5.31ZM5.31 95.586H0v5.311h5.31v-5.31ZM5.31 100.897H0v5.31h5.31v-5.31ZM10.62 47.793H5.31v5.31h5.31v-5.31ZM10.62 53.103H5.31v5.31h5.31v-5.31ZM10.62 58.414H5.31v5.31h5.31v-5.31ZM10.62 69.034H5.31v5.31h5.31v-5.31ZM10.62 74.345H5.31v5.31h5.31v-5.31ZM10.62 79.655H5.31v5.31h5.31v-5.31ZM10.62 84.966H5.31v5.31h5.31v-5.31ZM10.62 90.276H5.31v5.31h5.31v-5.31ZM10.62 106.207H5.31v5.31h5.31v-5.31ZM15.931 42.483h-5.31v5.31h5.31v-5.31ZM15.931 47.793h-5.31v5.31h5.31v-5.31ZM15.931 53.103h-5.31v5.31h5.31v-5.31ZM15.931 58.414h-5.31v5.31h5.31v-5.31ZM15.931 69.034h-5.31v5.31h5.31v-5.31ZM15.931 74.345h-5.31v5.31h5.31v-5.31ZM15.931 90.276h-5.31v5.31h5.31v-5.31ZM15.931 95.586h-5.31v5.311h5.31v-5.31ZM15.931 100.897h-5.31v5.31h5.31v-5.31Z" fill="#00742E"/><path d="M15.931 106.207h-5.31v5.31h5.31v-5.31ZM21.241 58.414h-5.31v5.31h5.31v-5.31Z" fill="#00742E"/><path d="M21.241 63.724h-5.31v5.31h5.31v-5.31ZM21.241 69.034h-5.31v5.31h5.31v-5.31ZM21.241 79.655h-5.31v5.31h5.31v-5.31ZM21.241 95.586h-5.31v5.311h5.31v-5.31ZM21.241 100.897h-5.31v5.31h5.31v-5.31ZM26.552 42.483h-5.31v5.31h5.31v-5.31ZM26.552 47.793h-5.31v5.31h5.31v-5.31ZM26.552 53.103h-5.31v5.31h5.31v-5.31ZM26.552 74.345h-5.31v5.31h5.31v-5.31ZM26.552 79.655h-5.31v5.31h5.31v-5.31ZM26.552 95.586h-5.31v5.311h5.31v-5.31ZM31.862 42.483h-5.31v5.31h5.31v-5.31ZM31.862 47.793h-5.31v5.31h5.31v-5.31ZM31.862 63.724h-5.31v5.31h5.31v-5.31ZM31.862 69.034h-5.31v5.31h5.31v-5.31ZM31.862 84.966h-5.31v5.31h5.31v-5.31ZM31.862 95.586h-5.31v5.311h5.31v-5.31ZM31.862 100.897h-5.31v5.31h5.31v-5.31ZM37.172 42.483h-5.31v5.31h5.31v-5.31ZM37.172 53.103h-5.31v5.31h5.31v-5.31ZM37.172 63.724h-5.31v5.31h5.31v-5.31ZM37.172 74.345h-5.31v5.31h5.31v-5.31ZM37.172 84.966h-5.31v5.31h5.31v-5.31ZM37.172 95.586h-5.31v5.311h5.31v-5.31ZM37.172 106.207h-5.31v5.31h5.31v-5.31ZM42.483 58.414h-5.31v5.31h5.31v-5.31ZM42.483 69.034h-5.31v5.31h5.31v-5.31ZM42.483 74.345h-5.31v5.31h5.31v-5.31ZM42.483 79.655h-5.31v5.31h5.31v-5.31ZM42.483 90.276h-5.31v5.31h5.31v-5.31ZM42.483 95.586h-5.31v5.311h5.31v-5.31ZM42.483 100.897h-5.31v5.31h5.31v-5.31ZM47.793 5.31h-5.31v5.31h5.31V5.31ZM47.793 21.241h-5.31v5.31h5.31v-5.31ZM47.793 31.862h-5.31v5.31h5.31v-5.31ZM47.793 42.483h-5.31v5.31h5.31v-5.31ZM47.793 53.103h-5.31v5.31h5.31v-5.31ZM47.793 58.414h-5.31v5.31h5.31v-5.31Z" fill="#00742E"/><path d="M47.793 63.724h-5.31v5.31h5.31v-5.31ZM47.793 69.034h-5.31v5.31h5.31v-5.31ZM47.793 79.655h-5.31v5.31h5.31v-5.31ZM47.793 84.966h-5.31v5.31h5.31v-5.31ZM47.793 95.586h-5.31v5.311h5.31v-5.31ZM47.793 106.207h-5.31v5.31h5.31v-5.31ZM47.793 111.517h-5.31v5.311h5.31v-5.311ZM47.793 122.138h-5.31v5.31h5.31v-5.31Z" fill="#00742E"/><path d="M47.793 127.448h-5.31v5.311h5.31v-5.311ZM47.793 138.069h-5.31v5.31h5.31v-5.31ZM53.103 5.31h-5.31v5.31h5.31V5.31ZM53.103 15.931h-5.31v5.31h5.31v-5.31ZM53.103 21.241h-5.31v5.31h5.31v-5.31ZM53.103 26.552h-5.31v5.31h5.31v-5.31ZM53.103 58.414h-5.31v5.31h5.31v-5.31ZM53.103 69.034h-5.31v5.31h5.31v-5.31ZM53.103 74.345h-5.31v5.31h5.31v-5.31ZM53.103 79.655h-5.31v5.31h5.31v-5.31ZM53.103 84.966h-5.31v5.31h5.31v-5.31ZM53.103 90.276h-5.31v5.31h5.31v-5.31ZM53.103 100.897h-5.31v5.31h5.31v-5.31Z" fill="#00742E"/><path d="M53.103 106.207h-5.31v5.31h5.31v-5.31ZM53.103 116.828h-5.31v5.31h5.31v-5.31ZM53.103 127.448h-5.31v5.311h5.31v-5.311ZM53.103 132.759h-5.31v5.31h5.31v-5.31ZM53.103 143.379h-5.31v5.311h5.31v-5.311ZM53.103 148.69h-5.31V154h5.31v-5.31ZM58.414 0h-5.31v5.31h5.31V0ZM58.414 5.31h-5.31v5.31h5.31V5.31ZM58.414 10.62h-5.31v5.311h5.31v-5.31ZM58.414 15.931h-5.31v5.31h5.31v-5.31ZM58.414 21.241h-5.31v5.31h5.31v-5.31ZM58.414 26.552h-5.31v5.31h5.31v-5.31ZM58.414 31.862h-5.31v5.31h5.31v-5.31ZM58.414 42.483h-5.31v5.31h5.31v-5.31ZM58.414 47.793h-5.31v5.31h5.31v-5.31ZM58.414 53.103h-5.31v5.31h5.31v-5.31ZM58.414 58.414h-5.31v5.31h5.31v-5.31ZM58.414 74.345h-5.31v5.31h5.31v-5.31ZM58.414 79.655h-5.31v5.31h5.31v-5.31ZM58.414 90.276h-5.31v5.31h5.31v-5.31ZM58.414 95.586h-5.31v5.311h5.31v-5.31ZM58.414 106.207h-5.31v5.31h5.31v-5.31ZM58.414 111.517h-5.31v5.311h5.31v-5.311ZM58.414 132.759h-5.31v5.31h5.31v-5.31ZM58.414 148.69h-5.31V154h5.31v-5.31Z" fill="#00742E"/><path d="M63.724 5.31h-5.31v5.31h5.31V5.31ZM63.724 21.241h-5.31v5.31h5.31v-5.31ZM63.724 26.552h-5.31v5.31h5.31v-5.31ZM63.724 58.414h-5.31v5.31h5.31v-5.31Z" fill="#00742E"/><path d="M63.724 63.724h-5.31v5.31h5.31v-5.31ZM63.724 79.655h-5.31v5.31h5.31v-5.31ZM63.724 84.966h-5.31v5.31h5.31v-5.31ZM63.724 90.276h-5.31v5.31h5.31v-5.31ZM63.724 95.586h-5.31v5.311h5.31v-5.31ZM63.724 100.897h-5.31v5.31h5.31v-5.31Z" fill="#00742E"/><path d="M63.724 106.207h-5.31v5.31h5.31v-5.31ZM63.724 111.517h-5.31v5.311h5.31v-5.311ZM63.724 143.379h-5.31v5.311h5.31v-5.311ZM63.724 148.69h-5.31V154h5.31v-5.31ZM69.034 5.31h-5.31v5.31h5.31V5.31ZM69.034 26.552h-5.31v5.31h5.31v-5.31ZM69.034 31.862h-5.31v5.31h5.31v-5.31ZM69.034 37.172h-5.31v5.31h5.31v-5.31ZM69.034 42.483h-5.31v5.31h5.31v-5.31ZM69.034 58.414h-5.31v5.31h5.31v-5.31Z" fill="#00742E"/><path d="M69.034 63.724h-5.31v5.31h5.31v-5.31ZM69.034 69.034h-5.31v5.31h5.31v-5.31ZM69.034 74.345h-5.31v5.31h5.31v-5.31ZM69.034 79.655h-5.31v5.31h5.31v-5.31ZM69.034 84.966h-5.31v5.31h5.31v-5.31ZM69.034 90.276h-5.31v5.31h5.31v-5.31ZM69.034 106.207h-5.31v5.31h5.31v-5.31ZM69.034 122.138h-5.31v5.31h5.31v-5.31ZM69.034 132.759h-5.31v5.31h5.31v-5.31ZM69.034 148.69h-5.31V154h5.31v-5.31ZM74.345 5.31h-5.31v5.31h5.31V5.31ZM74.345 10.62h-5.31v5.311h5.31v-5.31ZM74.345 21.241h-5.31v5.31h5.31v-5.31ZM74.345 42.483h-5.31v5.31h5.31v-5.31ZM74.345 53.103h-5.31v5.31h5.31v-5.31ZM74.345 58.414h-5.31v5.31h5.31v-5.31Z" fill="#00742E"/><path d="M74.345 63.724h-5.31v5.31h5.31v-5.31ZM74.345 69.034h-5.31v5.31h5.31v-5.31ZM74.345 84.966h-5.31v5.31h5.31v-5.31ZM74.345 90.276h-5.31v5.31h5.31v-5.31ZM74.345 95.586h-5.31v5.311h5.31v-5.31ZM74.345 116.828h-5.31v5.31h5.31v-5.31ZM74.345 127.448h-5.31v5.311h5.31v-5.311ZM74.345 138.069h-5.31v5.31h5.31v-5.31ZM74.345 148.69h-5.31V154h5.31v-5.31ZM79.655 15.931h-5.31v5.31h5.31v-5.31ZM79.655 21.241h-5.31v5.31h5.31v-5.31ZM79.655 31.862h-5.31v5.31h5.31v-5.31ZM79.655 37.172h-5.31v5.31h5.31v-5.31ZM79.655 47.793h-5.31v5.31h5.31v-5.31ZM79.655 53.103h-5.31v5.31h5.31v-5.31ZM79.655 63.724h-5.31v5.31h5.31v-5.31ZM79.655 95.586h-5.31v5.311h5.31v-5.31ZM79.655 106.207h-5.31v5.31h5.31v-5.31ZM79.655 127.448h-5.31v5.311h5.31v-5.311ZM79.655 148.69h-5.31V154h5.31v-5.31ZM84.966 5.31h-5.31v5.31h5.31V5.31ZM84.966 10.62h-5.31v5.311h5.31v-5.31ZM84.966 26.552h-5.31v5.31h5.31v-5.31ZM84.966 47.793h-5.31v5.31h5.31v-5.31ZM84.966 69.034h-5.31v5.31h5.31v-5.31ZM84.966 74.345h-5.31v5.31h5.31v-5.31ZM84.966 84.966h-5.31v5.31h5.31v-5.31ZM84.966 106.207h-5.31v5.31h5.31v-5.31ZM84.966 111.517h-5.31v5.311h5.31v-5.311ZM84.966 122.138h-5.31v5.31h5.31v-5.31ZM84.966 132.759h-5.31v5.31h5.31v-5.31ZM84.966 143.379h-5.31v5.311h5.31v-5.311ZM90.276 5.31h-5.31v5.31h5.31V5.31ZM90.276 10.62h-5.31v5.311h5.31v-5.31ZM90.276 15.931h-5.31v5.31h5.31v-5.31ZM90.276 21.241h-5.31v5.31h5.31v-5.31ZM90.276 26.552h-5.31v5.31h5.31v-5.31ZM90.276 31.862h-5.31v5.31h5.31v-5.31ZM90.276 37.172h-5.31v5.31h5.31v-5.31ZM90.276 42.483h-5.31v5.31h5.31v-5.31ZM90.276 47.793h-5.31v5.31h5.31v-5.31ZM90.276 58.414h-5.31v5.31h5.31v-5.31ZM90.276 69.034h-5.31v5.31h5.31v-5.31ZM90.276 74.345h-5.31v5.31h5.31v-5.31ZM90.276 79.655h-5.31v5.31h5.31v-5.31ZM90.276 84.966h-5.31v5.31h5.31v-5.31ZM90.276 100.897h-5.31v5.31h5.31v-5.31Z" fill="#00742E"/><path d="M90.276 106.207h-5.31v5.31h5.31v-5.31ZM90.276 111.517h-5.31v5.311h5.31v-5.311ZM90.276 122.138h-5.31v5.31h5.31v-5.31ZM90.276 143.379h-5.31v5.311h5.31v-5.311ZM90.276 148.69h-5.31V154h5.31v-5.31ZM95.586 0h-5.31v5.31h5.31V0ZM95.586 21.241h-5.31v5.31h5.31v-5.31ZM95.586 26.552h-5.31v5.31h5.31v-5.31ZM95.586 37.172h-5.31v5.31h5.31v-5.31ZM95.586 47.793h-5.31v5.31h5.31v-5.31ZM95.586 53.103h-5.31v5.31h5.31v-5.31ZM95.586 69.034h-5.31v5.31h5.31v-5.31ZM95.586 90.276h-5.31v5.31h5.31v-5.31ZM95.586 95.586h-5.31v5.311h5.31v-5.31ZM95.586 106.207h-5.31v5.31h5.31v-5.31ZM95.586 111.517h-5.31v5.311h5.31v-5.311ZM95.586 116.828h-5.31v5.31h5.31v-5.31ZM95.586 122.138h-5.31v5.31h5.31v-5.31Z" fill="#00742E"/><path d="M95.586 127.448h-5.31v5.311h5.31v-5.311ZM95.586 148.69h-5.31V154h5.31v-5.31ZM100.897 15.931h-5.31v5.31h5.31v-5.31ZM100.897 26.552h-5.31v5.31h5.31v-5.31ZM100.897 31.862h-5.31v5.31h5.31v-5.31ZM100.897 42.483h-5.31v5.31h5.31v-5.31ZM100.897 53.103h-5.31v5.31h5.31v-5.31ZM100.897 69.034h-5.31v5.31h5.31v-5.31ZM100.897 79.655h-5.31v5.31h5.31v-5.31ZM100.897 95.586h-5.31v5.311h5.31v-5.31ZM100.897 122.138h-5.31v5.31h5.31v-5.31ZM100.897 138.069h-5.31v5.31h5.31v-5.31ZM100.897 148.69h-5.31V154h5.31v-5.31ZM106.207 21.241h-5.31v5.31h5.31v-5.31Z" fill="#00742E"/><path d="M106.207 42.483h-5.31v5.31h5.31v-5.31ZM106.207 47.793h-5.31v5.31h5.31v-5.31ZM106.207 63.724h-5.31v5.31h5.31v-5.31ZM106.207 74.345h-5.31v5.31h5.31v-5.31ZM106.207 79.655h-5.31v5.31h5.31v-5.31ZM106.207 84.966h-5.31v5.31h5.31v-5.31ZM106.207 90.276h-5.31v5.31h5.31v-5.31ZM106.207 95.586h-5.31v5.311h5.31v-5.31ZM106.207 106.207h-5.31v5.31h5.31v-5.31ZM106.207 132.759h-5.31v5.31h5.31v-5.31ZM106.207 143.379h-5.31v5.311h5.31v-5.311ZM111.517 0h-5.31v5.31h5.31V0ZM111.517 5.31h-5.31v5.31h5.31V5.31ZM111.517 10.62h-5.31v5.311h5.31v-5.31ZM111.517 15.931h-5.31v5.31h5.31v-5.31ZM111.517 31.862h-5.31v5.31h5.31v-5.31ZM111.517 47.793h-5.31v5.31h5.31v-5.31ZM111.517 53.103h-5.31v5.31h5.31v-5.31ZM111.517 69.034h-5.31v5.31h5.31v-5.31ZM111.517 74.345h-5.31v5.31h5.31v-5.31ZM111.517 90.276h-5.31v5.31h5.31v-5.31ZM111.517 106.207h-5.31v5.31h5.31v-5.31ZM111.517 111.517h-5.31v5.311h5.31v-5.311ZM111.517 116.828h-5.31v5.31h5.31v-5.31ZM111.517 122.138h-5.31v5.31h5.31v-5.31Z" fill="#00742E"/><path d="M111.517 127.448h-5.31v5.311h5.31v-5.311ZM111.517 132.759h-5.31v5.31h5.31v-5.31ZM111.517 148.69h-5.31V154h5.31v-5.31ZM116.828 42.483h-5.311v5.31h5.311v-5.31ZM116.828 53.103h-5.311v5.31h5.311v-5.31ZM116.828 69.034h-5.311v5.31h5.311v-5.31ZM116.828 74.345h-5.311v5.31h5.311v-5.31ZM116.828 79.655h-5.311v5.31h5.311v-5.31ZM116.828 84.966h-5.311v5.31h5.311v-5.31ZM116.828 95.586h-5.311v5.311h5.311v-5.31ZM116.828 100.897h-5.311v5.31h5.311v-5.31Z" fill="#00742E"/><path d="M116.828 106.207h-5.311v5.31h5.311v-5.31ZM116.828 127.448h-5.311v5.311h5.311v-5.311ZM116.828 138.069h-5.311v5.31h5.311v-5.31ZM116.828 148.69h-5.311V154h5.311v-5.31ZM122.138 53.103h-5.31v5.31h5.31v-5.31ZM122.138 63.724h-5.31v5.31h5.31v-5.31ZM122.138 74.345h-5.31v5.31h5.31v-5.31ZM122.138 79.655h-5.31v5.31h5.31v-5.31ZM122.138 90.276h-5.31v5.31h5.31v-5.31ZM122.138 100.897h-5.31v5.31h5.31v-5.31Z" fill="#00742E"/><path d="M122.138 106.207h-5.31v5.31h5.31v-5.31ZM122.138 116.828h-5.31v5.31h5.31v-5.31ZM122.138 127.448h-5.31v5.311h5.31v-5.311ZM122.138 148.69h-5.31V154h5.31v-5.31ZM127.448 53.103h-5.31v5.31h5.31v-5.31ZM127.448 79.655h-5.31v5.31h5.31v-5.31ZM127.448 84.966h-5.31v5.31h5.31v-5.31ZM127.448 90.276h-5.31v5.31h5.31v-5.31ZM127.448 95.586h-5.31v5.311h5.31v-5.31Z" fill="#00742E"/><path d="M127.448 100.897h-5.31v5.31h5.31v-5.31Z" fill="#00742E"/><path d="M127.448 106.207h-5.31v5.31h5.31v-5.31ZM127.448 127.448h-5.31v5.311h5.31v-5.311ZM127.448 132.759h-5.31v5.31h5.31v-5.31ZM127.448 143.379h-5.31v5.311h5.31v-5.311ZM127.448 148.69h-5.31V154h5.31v-5.31ZM132.759 42.483h-5.311v5.31h5.311v-5.31ZM132.759 47.793h-5.311v5.31h5.311v-5.31ZM132.759 58.414h-5.311v5.31h5.311v-5.31ZM132.759 69.034h-5.311v5.31h5.311v-5.31ZM132.759 74.345h-5.311v5.31h5.311v-5.31ZM132.759 79.655h-5.311v5.31h5.311v-5.31ZM132.759 95.586h-5.311v5.311h5.311v-5.31Z" fill="#00742E"/><path d="M132.759 100.897h-5.311v5.31h5.311v-5.31Z" fill="#00742E"/><path d="M132.759 106.207h-5.311v5.31h5.311v-5.31ZM132.759 111.517h-5.311v5.311h5.311v-5.311ZM132.759 116.828h-5.311v5.31h5.311v-5.31ZM132.759 122.138h-5.311v5.31h5.311v-5.31Z" fill="#00742E"/><path d="M132.759 127.448h-5.311v5.311h5.311v-5.311ZM132.759 143.379h-5.311v5.311h5.311v-5.311ZM132.759 148.69h-5.311V154h5.311v-5.31ZM138.069 47.793h-5.31v5.31h5.31v-5.31ZM138.069 53.103h-5.31v5.31h5.31v-5.31ZM138.069 69.034h-5.31v5.31h5.31v-5.31ZM138.069 84.966h-5.31v5.31h5.31v-5.31ZM138.069 122.138h-5.31v5.31h5.31v-5.31ZM138.069 138.069h-5.31v5.31h5.31v-5.31ZM138.069 143.379h-5.31v5.311h5.31v-5.311ZM143.379 58.414h-5.31v5.31h5.31v-5.31Z" fill="#00742E"/><path d="M143.379 63.724h-5.31v5.31h5.31v-5.31ZM143.379 69.034h-5.31v5.31h5.31v-5.31ZM143.379 74.345h-5.31v5.31h5.31v-5.31ZM143.379 84.966h-5.31v5.31h5.31v-5.31ZM143.379 100.897h-5.31v5.31h5.31v-5.31Z" fill="#00742E"/><path d="M143.379 106.207h-5.31v5.31h5.31v-5.31ZM143.379 111.517h-5.31v5.311h5.31v-5.311ZM143.379 132.759h-5.31v5.31h5.31v-5.31ZM143.379 143.379h-5.31v5.311h5.31v-5.311ZM143.379 148.69h-5.31V154h5.31v-5.31ZM148.69 42.483h-5.311v5.31h5.311v-5.31ZM148.69 47.793h-5.311v5.31h5.311v-5.31ZM148.69 63.724h-5.311v5.31h5.311v-5.31ZM148.69 90.276h-5.311v5.31h5.311v-5.31ZM148.69 106.207h-5.311v5.31h5.311v-5.31ZM148.69 111.517h-5.311v5.311h5.311v-5.311ZM148.69 116.828h-5.311v5.31h5.311v-5.31ZM148.69 122.138h-5.311v5.31h5.311v-5.31ZM148.69 132.759h-5.311v5.31h5.311v-5.31ZM148.69 143.379h-5.311v5.311h5.311v-5.311ZM148.69 148.69h-5.311V154h5.311v-5.31ZM154 47.793h-5.31v5.31H154v-5.31ZM154 53.103h-5.31v5.31H154v-5.31ZM154 63.724h-5.31v5.31H154v-5.31ZM154 69.034h-5.31v5.31H154v-5.31ZM154 74.345h-5.31v5.31H154v-5.31ZM154 79.655h-5.31v5.31H154v-5.31ZM154 90.276h-5.31v5.31H154v-5.31ZM154 106.207h-5.31v5.31H154v-5.31ZM154 127.448h-5.31v5.311H154v-5.311ZM154 132.759h-5.31v5.31H154v-5.31ZM154 143.379h-5.31v5.311H154v-5.311Z" fill="#00742E"/><path fill-rule="evenodd" clip-rule="evenodd" d="M0 0v37.172h37.172V0H0Zm5.31 5.31h26.552v26.552H5.31V5.31Z" fill="#00742E"/><path d="M15.931 10.62h-5.31v5.311h5.31v-5.31ZM15.931 15.931h-5.31v5.31h5.31v-5.31ZM15.931 21.241h-5.31v5.31h5.31v-5.31ZM21.241 10.62h-5.31v5.311h5.31v-5.31ZM21.241 15.931h-5.31v5.31h5.31v-5.31ZM21.241 21.241h-5.31v5.31h5.31v-5.31ZM26.552 10.62h-5.31v5.311h5.31v-5.31ZM26.552 15.931h-5.31v5.31h5.31v-5.31ZM26.552 21.241h-5.31v5.31h5.31v-5.31Z" fill="#00742E"/><path fill-rule="evenodd" clip-rule="evenodd" d="M154 0h-37.172v37.172H154V0Zm-5.31 5.31v26.552h-26.552V5.31h26.552Z" fill="#00742E"/><path d="M132.759 10.62h-5.311v5.311h5.311v-5.31ZM132.759 15.931h-5.311v5.31h5.311v-5.31ZM132.759 21.241h-5.311v5.31h5.311v-5.31ZM138.069 10.62h-5.31v5.311h5.31v-5.31ZM138.069 15.931h-5.31v5.31h5.31v-5.31ZM138.069 21.241h-5.31v5.31h5.31v-5.31ZM143.379 10.62h-5.31v5.311h5.31v-5.31ZM143.379 15.931h-5.31v5.31h5.31v-5.31ZM143.379 21.241h-5.31v5.31h5.31v-5.31Z" fill="#00742E"/><path fill-rule="evenodd" clip-rule="evenodd" d="M0 154h37.172v-37.172H0V154Zm5.31-5.31v-26.552h26.552v26.552H5.31Z" fill="#00742E"/><path d="M15.931 127.448h-5.31v5.311h5.31v-5.311ZM15.931 132.759h-5.31v5.31h5.31v-5.31ZM15.931 138.069h-5.31v5.31h5.31v-5.31ZM21.241 127.448h-5.31v5.311h5.31v-5.311ZM21.241 132.759h-5.31v5.31h5.31v-5.31ZM21.241 138.069h-5.31v5.31h5.31v-5.31ZM26.552 127.448h-5.31v5.311h5.31v-5.311ZM26.552 132.759h-5.31v5.31h5.31v-5.31ZM26.552 138.069h-5.31v5.31h5.31v-5.31Z" fill="#00742E"/></svg>