<svg width="36" height="51" fill="none" xmlns="http://www.w3.org/2000/svg"><path d="M18 50.589c9.494 0 17.222-7.853 17.222-17.5 0-9.648-7.728-17.5-17.222-17.5-9.497 0-17.222 7.852-17.222 17.5 0 9.647 7.725 17.5 17.222 17.5Zm0-30c6.783 0 12.302 5.607 12.302 12.5 0 6.892-5.519 12.5-12.302 12.5-6.783 0-12.302-5.608-12.302-12.5 0-6.893 5.519-12.5 12.302-12.5Zm-2.46-20H5.698v13.795a21.818 21.818 0 0 1 9.842-3.648V.59Zm14.762 0H20.46v10.147a21.818 21.818 0 0 1 9.842 3.648V.589Z" fill="#00742E"/><path d="m13.72 34.749-1.054 6.168 5.516-2.912 5.515 2.912-1.054-6.168 4.464-4.371-6.166-.9-2.76-5.614-2.758 5.613-6.167.9 4.464 4.372Z" fill="#00742E"/></svg>