<svg width="346" height="75" viewBox="0 0 346 75" fill="none" xmlns="http://www.w3.org/2000/svg">
<path d="M112.274 66.1339H134.18V62.0926H116.736V51.4055H133.278V47.3193H116.736V36.7221H134.18V32.6808H112.274V66.1339Z" fill="black"/>
<path d="M159.872 41.9309H154.508L143.329 53.3006V32.142H139.092V66.1339H143.329V58.8807L147.486 54.5289L155.544 66.1339H160.503L150.541 51.675L159.872 41.9309Z" fill="black"/>
<path d="M181.732 43.0307C179.839 41.9384 177.705 41.3918 175.332 41.3918C172.988 41.3918 170.87 41.9461 168.977 43.0533C167.084 44.161 165.581 45.6577 164.469 47.5436C163.357 49.4296 162.802 51.5849 162.802 54.0097C162.802 56.4345 163.365 58.6053 164.492 60.5207C165.619 62.4367 167.129 63.9411 169.022 65.0334C170.915 66.1267 173.018 66.6725 175.332 66.6725C177.646 66.6725 179.742 66.1267 181.62 65.0334C183.498 63.9411 185.007 62.4445 186.15 60.5431C187.291 58.6425 187.863 56.4646 187.863 54.0097C187.863 51.5555 187.314 49.3847 186.217 47.4987C185.12 45.6128 183.626 44.1238 181.732 43.0307ZM182.341 58.4103C181.635 59.7279 180.673 60.7607 179.456 61.5086C178.239 62.2571 176.865 62.6312 175.332 62.6312C173.829 62.6312 172.47 62.2571 171.253 61.5086C170.036 60.7607 169.067 59.7279 168.346 58.4103C167.624 57.0932 167.264 55.6262 167.264 54.0097C167.264 52.3932 167.624 50.9414 168.346 49.6541C169.067 48.3673 170.036 47.3492 171.253 46.6006C172.47 45.8527 173.829 45.4781 175.332 45.4781C176.865 45.4781 178.239 45.8527 179.456 46.6006C180.673 47.3492 181.635 48.3673 182.341 49.6541C183.047 50.9414 183.4 52.3932 183.4 54.0097C183.4 55.6262 183.047 57.0932 182.341 58.4103Z" fill="black"/>
<path d="M224.035 42.5593C222.667 41.7811 221.142 41.3918 219.46 41.3918C217.626 41.3918 215.959 41.8789 214.456 42.8511C213.346 43.5701 212.476 44.5396 211.842 45.7565C211.239 44.6542 210.393 43.7216 209.296 42.9635C207.778 41.9159 206.073 41.3918 204.18 41.3918C202.527 41.3918 201.039 41.796 199.717 42.6042C198.761 43.1883 197.997 43.9711 197.419 44.946V41.9307H193.272V66.1337H197.509V51.8095C197.509 50.4924 197.757 49.3621 198.252 48.4191C198.748 47.4762 199.424 46.7508 200.281 46.2414C201.137 45.7326 202.106 45.4781 203.188 45.4781C204.299 45.4781 205.269 45.7326 206.095 46.2414C206.921 46.7508 207.575 47.4692 208.056 48.3968C208.536 49.3249 208.777 50.4623 208.777 51.8095V66.1337H213.014V51.8095C213.014 50.4924 213.262 49.3621 213.758 48.4191C214.254 47.4762 214.93 46.7508 215.786 46.2414C216.643 45.7326 217.612 45.4781 218.693 45.4781C219.775 45.4781 220.737 45.7326 221.578 46.2414C222.419 46.7508 223.08 47.4692 223.561 48.3968C224.042 49.3249 224.283 50.4623 224.283 51.8095V66.1337H228.519V50.4623C228.519 48.7265 228.114 47.1696 227.302 45.7924C226.491 44.4158 225.402 43.3381 224.035 42.5593H224.035Z" fill="black"/>
<path d="M252.362 43.0307C250.469 41.9384 248.335 41.3918 245.962 41.3918C243.618 41.3918 241.499 41.9461 239.606 43.0533C237.713 44.161 236.21 45.6577 235.099 47.5436C233.987 49.4296 233.431 51.5849 233.431 54.0097C233.431 56.4345 233.995 58.6053 235.122 60.5207C236.248 62.4367 237.758 63.9411 239.651 65.0334C241.544 66.1267 243.647 66.6725 245.962 66.6725C248.275 66.6725 250.371 66.1267 252.25 65.0334C254.127 63.9411 255.637 62.4445 256.779 60.5431C257.921 58.6425 258.492 56.4646 258.492 54.0097C258.492 51.5555 257.944 49.3847 256.847 47.4987C255.75 45.6128 254.255 44.1238 252.362 43.0307ZM252.971 58.4103C252.264 59.7279 251.303 60.7607 250.086 61.5086C248.869 62.2571 247.494 62.6312 245.962 62.6312C244.459 62.6312 243.1 62.2571 241.883 61.5086C240.666 60.7607 239.696 59.7279 238.975 58.4103C238.254 57.0932 237.893 55.6262 237.893 54.0097C237.893 52.3932 238.254 50.9414 238.975 49.6541C239.696 48.3673 240.666 47.3492 241.883 46.6006C243.1 45.8527 244.459 45.4781 245.962 45.4781C247.494 45.4781 248.869 45.8527 250.086 46.6006C251.303 47.3492 252.264 48.3673 252.971 49.6541C253.676 50.9414 254.03 52.3932 254.03 54.0097C254.03 55.6262 253.676 57.0932 252.971 58.4103Z" fill="black"/>
<path d="M282.72 43.0533C280.901 41.9461 278.85 41.3918 276.567 41.3918C274.554 41.3918 272.765 41.8183 271.203 42.6715C269.977 43.3411 268.957 44.1932 268.138 45.2223V32.1417H263.901V66.1337H268.048V62.6297C268.861 63.7906 269.902 64.7143 271.181 65.3927C272.788 66.246 274.568 66.6725 276.522 66.6725C278.836 66.6725 280.901 66.119 282.72 65.0111C284.537 63.9039 285.972 62.3918 287.024 60.4758C288.076 58.5604 288.602 56.4197 288.602 54.0546C288.602 51.6298 288.076 49.4673 287.024 47.566C285.972 45.6654 284.537 44.161 282.72 43.0533V43.0533ZM283.103 58.4326C282.411 59.7348 281.472 60.7607 280.286 61.5086C279.098 62.2571 277.739 62.6312 276.207 62.6312C274.674 62.6312 273.299 62.2571 272.082 61.5086C270.865 60.7607 269.903 59.7348 269.198 58.4326C268.491 57.1304 268.138 55.6711 268.138 54.0546C268.138 52.4086 268.491 50.9414 269.198 49.6541C269.903 48.3673 270.865 47.3492 272.082 46.6006C273.299 45.8527 274.674 45.4781 276.207 45.4781C277.739 45.4781 279.098 45.8527 280.286 46.6006C281.472 47.3492 282.411 48.3673 283.103 49.6541C283.794 50.9414 284.139 52.4086 284.139 54.0546C284.139 55.6711 283.794 57.1304 283.103 58.4326Z" fill="black"/>
<path d="M298.293 32.6808H294.056V38.0692H298.293V32.6808Z" fill="black"/>
<path d="M298.293 41.9308H294.056V66.1338H298.293V41.9308Z" fill="black"/>
<path d="M308.974 32.1417H304.737V66.1337H308.974V32.1417Z" fill="black"/>
<path d="M331.173 42.5593C329.806 41.7811 328.25 41.3918 326.508 41.3918C324.705 41.3918 323.135 41.8183 321.798 42.6715C320.879 43.2578 320.138 44.0072 319.567 44.9117V41.9307H315.42V66.1337H319.657V51.8095C319.657 50.4924 319.912 49.3621 320.423 48.4191C320.934 47.4762 321.632 46.7508 322.519 46.2414C323.405 45.7326 324.419 45.4781 325.562 45.4781C326.703 45.4781 327.717 45.7326 328.604 46.2414C329.49 46.7508 330.174 47.4692 330.655 48.3968C331.135 49.3249 331.376 50.4623 331.376 51.8095V66.1337H335.613V50.4623C335.613 48.7265 335.214 47.1696 334.419 45.7924C333.622 44.4158 332.54 43.3381 331.173 42.5593Z" fill="black"/>
<path d="M345.798 41.9305H341.562V66.1335H345.798V41.9305Z" fill="black"/>
<path d="M345.799 32.6797H341.562V38.0681H345.799V32.6797Z" fill="black"/>
<path d="M78.6538 44.7932H78.6538C71.9033 44.7932 66.4309 50.2449 66.4309 56.9699V56.9699C66.4309 63.6949 71.9033 69.1466 78.6538 69.1466H78.6538C85.4043 69.1466 90.8767 63.6949 90.8767 56.9699V56.9699C90.8767 50.2449 85.4043 44.7932 78.6538 44.7932Z" fill="#0072B3"/>
<path d="M69.877 8.91932L30.2876 48.3591C25.5143 53.1144 25.5143 60.8243 30.2877 65.5796L30.2877 65.5796C35.061 70.3349 42.8001 70.3349 47.5734 65.5796L87.1628 26.1398C91.9361 21.3845 91.9361 13.6746 87.1628 8.91932C82.3895 4.16403 74.6504 4.16403 69.877 8.91932Z" fill="#ADEC97"/>
<path d="M8.90815 27.0618L8.90813 27.0618C4.13481 31.8171 4.1348 39.5269 8.90813 44.2822L30.2873 65.5806C35.0606 70.3359 42.7997 70.3359 47.573 65.5805C52.3463 60.8252 52.3463 53.1154 47.573 48.3601L26.1939 27.0618C21.4206 22.3065 13.6815 22.3065 8.90815 27.0618Z" fill="#2ECA3E"/>
</svg>
