<svg width="41" height="41" viewBox="0 0 41 41" fill="none" xmlns="http://www.w3.org/2000/svg">
<path d="M20.5 18.3889C19.28 18.3889 18.3 19.3689 18.3 20.5889C18.3 21.8089 19.28 22.7889 20.5 22.7889C21.72 22.7889 22.7 21.8089 22.7 20.5889C22.7 19.3689 21.72 18.3889 20.5 18.3889ZM20.5 0.588867C9.45995 0.588867 0.499908 9.54887 0.499908 20.5889C0.499908 31.6289 9.45995 40.5889 20.5 40.5889C31.5401 40.5889 40.5001 31.6289 40.5001 20.5889C40.5001 9.54887 31.5401 0.588867 20.5 0.588867ZM24.88 24.9689L8.49995 32.5889L16.12 16.2089L32.5001 8.58887L24.88 24.9689Z" fill="#00742E"/>
</svg>
