<svg width="41" height="41" viewBox="0 0 41 41" fill="none" xmlns="http://www.w3.org/2000/svg">
<path d="M15.5 9.58887V15.5889H9.4999V9.58887H15.5ZM18.5 6.58887H6.49988V18.5889H18.5V6.58887ZM15.5 25.5889V31.5889H9.4999V25.5889H15.5ZM18.5 22.5889H6.49988V34.5889H18.5V22.5889ZM31.5001 9.58887V15.5889H25.5001V9.58887H31.5001ZM34.5001 6.58887H22.5V18.5889H34.5001V6.58887ZM22.5 22.5889H25.5001V25.5889H22.5V22.5889ZM25.5001 25.5889H28.5001V28.5889H25.5001V25.5889ZM28.5001 22.5889H31.5001V25.5889H28.5001V22.5889ZM22.5 28.5889H25.5001V31.5889H22.5V28.5889ZM25.5001 31.5889H28.5001V34.5889H25.5001V31.5889ZM28.5001 28.5889H31.5001V31.5889H28.5001V28.5889ZM31.5001 25.5889H34.5001V28.5889H31.5001V25.5889ZM31.5001 31.5889H34.5001V34.5889H31.5001V31.5889ZM40.5002 10.5889H36.5002V4.58887H30.5001V0.588867H40.5002V10.5889ZM40.5002 40.5889V30.5889H36.5002V36.5889H30.5001V40.5889H40.5002ZM0.499817 40.5889H10.4999V36.5889H4.49986V30.5889H0.499817V40.5889ZM0.499817 0.588867V10.5889H4.49986V4.58887H10.4999V0.588867H0.499817Z" fill="#00742E"/>
</svg>
