<svg width="36" height="51" viewBox="0 0 36 51" fill="none" xmlns="http://www.w3.org/2000/svg">
<path d="M18 50.5889C27.4944 50.5889 35.2223 42.7364 35.2223 33.0889C35.2223 23.4414 27.4944 15.5889 18 15.5889C8.50312 15.5889 0.777679 23.4414 0.777679 33.0889C0.777679 42.7364 8.50312 50.5889 18 50.5889ZM18 20.5889C24.7831 20.5889 30.3017 26.1964 30.3017 33.0889C30.3017 39.9814 24.7831 45.5889 18 45.5889C11.2169 45.5889 5.69834 39.9814 5.69834 33.0889C5.69834 26.1964 11.2169 20.5889 18 20.5889ZM15.5397 0.588867H5.69834V14.3839C8.64257 12.3819 12.0184 11.1307 15.5397 10.7364V0.588867ZM30.3017 0.588867H20.4603V10.7364C23.9816 11.1307 27.3574 12.3819 30.3017 14.3839V0.588867Z" fill="#00742E"/>
<path d="M13.7202 34.749L12.6662 40.9167L18.1817 38.0048L23.6973 40.9167L22.6432 34.749L27.107 30.3777L20.9406 29.4773L18.1817 23.8639L15.4229 29.4773L9.25647 30.3777L13.7202 34.749Z" fill="#00742E"/>
</svg>
